<?xml version="1.0" encoding="UTF-8" standalone="no"?>
<svg width="319px" height="400px" viewBox="0 0 319 400" version="1.1" xmlns="http://www.w3.org/2000/svg" xmlns:xlink="http://www.w3.org/1999/xlink" xmlns:sketch="http://www.bohemiancoding.com/sketch/ns">
    <!-- Generator: Sketch Beta 3.4.3 (16051) - http://www.bohemiancoding.com/sketch -->
    <title>Pattern</title>
    <desc>Created with Sketch Beta.</desc>
    <defs>
        <linearGradient x1="50%" y1="0%" x2="50%" y2="100%" id="linearGradient-1">
            <stop stop-color="#FFFFFF" stop-opacity="0" offset="0%"></stop>
            <stop stop-color="#FFFFFF" offset="100%"></stop>
        </linearGradient>
    </defs>
    <g id="Page-1" stroke="none" stroke-width="1" fill="none" fill-rule="evenodd" sketch:type="MSPage">
        <g id="Pattern" sketch:type="MSLayerGroup">
            <g id="Group" transform="translate(0.636364, 207.000000)" sketch:type="MSShapeGroup">
                <path d="M125.132322,0.0252631579 L55.9459163,37.9606316 L27.4297873,23.0147368 L-0.000272881618,38.0536842 L-0.000272881618,54.4747368 L90.6701022,102 L118.100162,86.9610526 L118.100162,70.54 L104.895421,63.6185263 L158.770439,34.0770526 L158.770439,17.6587368 L147.836072,11.9250526 L136.074875,18.3730526 L136.069417,5.75621053 L125.132322,0.0252631579 Z" id="Fill-1" stroke="#EEF2F4"></path>
                <path d="M125.132322,0.0252631579 L55.9459163,37.9606316 L27.4297873,23.0147368 L-0.000272881618,38.0536842 L90.6701022,85.5789474 L118.100162,70.54 L89.5840333,55.5941053 L158.770439,17.6587368 L147.836072,11.9250526 L78.6496669,49.8604211 L66.8830116,43.6915789 L136.069417,5.75621053 L125.132322,0.0252631579 Z" id="Fill-2" stroke="#EEF2F4"></path>
                <path d="M90.6706479,85.5781263 L90.6706479,101.999179 L118.100708,86.9602316 L118.100708,70.5419158 L90.6706479,85.5781263 Z M66.8813743,43.6932211 L78.6480296,49.8620632 L136.073237,18.3746947 L136.06778,5.75785263 L66.8813743,43.6932211 Z M89.5851249,55.5941053 L104.896512,63.6185263 L158.77153,34.0770526 L158.77153,17.6587368 L89.5851249,55.5941053 Z" id="Fill-3"></path>
                <rect id="Rectangle-569" fill="#EEF2F4" x="90.1636242" y="85" width="1" height="16"></rect>
            </g>
            <g id="Group" transform="translate(159.636364, 272.000000)" sketch:type="MSShapeGroup">
                <path d="M125.132322,0.0252631579 L55.9459163,37.9606316 L27.4297873,23.0147368 L-0.000272881618,38.0536842 L-0.000272881618,54.4747368 L90.6701022,102 L118.100162,86.9610526 L118.100162,70.54 L104.895421,63.6185263 L158.770439,34.0770526 L158.770439,17.6587368 L147.836072,11.9250526 L136.074875,18.3730526 L136.069417,5.75621053 L125.132322,0.0252631579 Z" id="Fill-1" stroke="#EEF2F4"></path>
                <path d="M125.132322,0.0252631579 L55.9459163,37.9606316 L27.4297873,23.0147368 L-0.000272881618,38.0536842 L90.6701022,85.5789474 L118.100162,70.54 L89.5840333,55.5941053 L158.770439,17.6587368 L147.836072,11.9250526 L78.6496669,49.8604211 L66.8830116,43.6915789 L136.069417,5.75621053 L125.132322,0.0252631579 Z" id="Fill-2" stroke="#EEF2F4"></path>
                <path d="M90.6706479,85.5781263 L90.6706479,101.999179 L118.100708,86.9602316 L118.100708,70.5419158 L90.6706479,85.5781263 Z M66.8813743,43.6932211 L78.6480296,49.8620632 L136.073237,18.3746947 L136.06778,5.75785263 L66.8813743,43.6932211 Z M89.5851249,55.5941053 L104.896512,63.6185263 L158.77153,34.0770526 L158.77153,17.6587368 L89.5851249,55.5941053 Z" id="Fill-3"></path>
                <rect id="Rectangle-569" fill="#EEF2F4" x="90.1636242" y="85" width="1" height="16"></rect>
            </g>
            <g id="Group" transform="translate(0.636364, 76.000000)" sketch:type="MSShapeGroup">
                <path d="M125.132322,0.0252631579 L55.9459163,37.9606316 L27.4297873,23.0147368 L-0.000272881618,38.0536842 L-0.000272881618,54.4747368 L90.6701022,102 L118.100162,86.9610526 L118.100162,70.54 L104.895421,63.6185263 L158.770439,34.0770526 L158.770439,17.6587368 L147.836072,11.9250526 L136.074875,18.3730526 L136.069417,5.75621053 L125.132322,0.0252631579 Z" id="Fill-1" stroke="#EEF2F4"></path>
                <path d="M125.132322,0.0252631579 L55.9459163,37.9606316 L27.4297873,23.0147368 L-0.000272881618,38.0536842 L90.6701022,85.5789474 L118.100162,70.54 L89.5840333,55.5941053 L158.770439,17.6587368 L147.836072,11.9250526 L78.6496669,49.8604211 L66.8830116,43.6915789 L136.069417,5.75621053 L125.132322,0.0252631579 Z" id="Fill-2" stroke="#EEF2F4"></path>
                <path d="M90.6706479,85.5781263 L90.6706479,101.999179 L118.100708,86.9602316 L118.100708,70.5419158 L90.6706479,85.5781263 Z M66.8813743,43.6932211 L78.6480296,49.8620632 L136.073237,18.3746947 L136.06778,5.75785263 L66.8813743,43.6932211 Z M89.5851249,55.5941053 L104.896512,63.6185263 L158.77153,34.0770526 L158.77153,17.6587368 L89.5851249,55.5941053 Z" id="Fill-3"></path>
                <rect id="Rectangle-569" fill="#EEF2F4" x="90.1636242" y="85" width="1" height="16"></rect>
            </g>
            <g id="Group" transform="translate(159.636364, 141.000000)" sketch:type="MSShapeGroup">
                <path d="M125.132322,0.0252631579 L55.9459163,37.9606316 L27.4297873,23.0147368 L-0.000272881618,38.0536842 L-0.000272881618,54.4747368 L90.6701022,102 L118.100162,86.9610526 L118.100162,70.54 L104.895421,63.6185263 L158.770439,34.0770526 L158.770439,17.6587368 L147.836072,11.9250526 L136.074875,18.3730526 L136.069417,5.75621053 L125.132322,0.0252631579 Z" id="Fill-1" stroke="#EEF2F4"></path>
                <path d="M125.132322,0.0252631579 L55.9459163,37.9606316 L27.4297873,23.0147368 L-0.000272881618,38.0536842 L90.6701022,85.5789474 L118.100162,70.54 L89.5840333,55.5941053 L158.770439,17.6587368 L147.836072,11.9250526 L78.6496669,49.8604211 L66.8830116,43.6915789 L136.069417,5.75621053 L125.132322,0.0252631579 Z" id="Fill-2" stroke="#EEF2F4"></path>
                <path d="M90.6706479,85.5781263 L90.6706479,101.999179 L118.100708,86.9602316 L118.100708,70.5419158 L90.6706479,85.5781263 Z M66.8813743,43.6932211 L78.6480296,49.8620632 L136.073237,18.3746947 L136.06778,5.75785263 L66.8813743,43.6932211 Z M89.5851249,55.5941053 L104.896512,63.6185263 L158.77153,34.0770526 L158.77153,17.6587368 L89.5851249,55.5941053 Z" id="Fill-3"></path>
                <rect id="Rectangle-569" fill="#EEF2F4" x="90.1636242" y="85" width="1" height="16"></rect>
            </g>
            <g id="Group" transform="translate(159.636364, 10.000000)" sketch:type="MSShapeGroup">
                <path d="M125.132322,0.0252631579 L55.9459163,37.9606316 L27.4297873,23.0147368 L-0.000272881618,38.0536842 L-0.000272881618,54.4747368 L90.6701022,102 L118.100162,86.9610526 L118.100162,70.54 L104.895421,63.6185263 L158.770439,34.0770526 L158.770439,17.6587368 L147.836072,11.9250526 L136.074875,18.3730526 L136.069417,5.75621053 L125.132322,0.0252631579 Z" id="Fill-1" stroke="#EEF2F4"></path>
                <path d="M125.132322,0.0252631579 L55.9459163,37.9606316 L27.4297873,23.0147368 L-0.000272881618,38.0536842 L90.6701022,85.5789474 L118.100162,70.54 L89.5840333,55.5941053 L158.770439,17.6587368 L147.836072,11.9250526 L78.6496669,49.8604211 L66.8830116,43.6915789 L136.069417,5.75621053 L125.132322,0.0252631579 Z" id="Fill-2" stroke="#EEF2F4"></path>
                <path d="M90.6706479,85.5781263 L90.6706479,101.999179 L118.100708,86.9602316 L118.100708,70.5419158 L90.6706479,85.5781263 Z M66.8813743,43.6932211 L78.6480296,49.8620632 L136.073237,18.3746947 L136.06778,5.75785263 L66.8813743,43.6932211 Z M89.5851249,55.5941053 L104.896512,63.6185263 L158.77153,34.0770526 L158.77153,17.6587368 L89.5851249,55.5941053 Z" id="Fill-3"></path>
                <rect id="Rectangle-569" fill="#EEF2F4" x="90.1636242" y="85" width="1" height="16"></rect>
            </g>
            <rect id="Mask" fill="url(#linearGradient-1)" sketch:type="MSShapeGroup" x="0" y="0" width="319" height="400"></rect>
        </g>
    </g>
</svg>