<?xml version="1.0" encoding="UTF-8" standalone="no"?>
<svg width="220px" height="400px" viewBox="0 0 220 400" version="1.1" xmlns="http://www.w3.org/2000/svg" xmlns:xlink="http://www.w3.org/1999/xlink" xmlns:sketch="http://www.bohemiancoding.com/sketch/ns">
    <!-- Generator: Sketch Beta 3.4.4 (17258) - http://www.bohemiancoding.com/sketch -->
    <title>Pattern</title>
    <desc>Created with Sketch Beta.</desc>
    <defs>
        <linearGradient x1="50%" y1="-2.48949813e-15%" x2="50%" y2="100%" id="linearGradient-1">
            <stop stop-color="#FFFFFF" stop-opacity="0" offset="0%"></stop>
            <stop stop-color="#FFFFFF" offset="100%"></stop>
        </linearGradient>
    </defs>
    <g id="Page-1" stroke="none" stroke-width="1" fill="none" fill-rule="evenodd" sketch:type="MSPage">
        <g id="Pattern" sketch:type="MSLayerGroup" transform="translate(-409.000000, -80.000000)">
            <g id="Group" stroke="#EEF2F4" sketch:type="MSShapeGroup">
                <g id="Logo-Copy-91" transform="translate(360.000000, 58.947368) scale(-1, 1) translate(-360.000000, -58.947368) translate(310.000000, 0.000000)">
                    <path d="M21.5011442,44.4361556 L0.315789474,32.4407323 L0.132723112,105.598627 L21.3226545,117.850343 L21.3501144,93.5757437 L42.4988558,105.70389 L42.5629291,81.182151 L21.4141876,69.008238 L21.5011442,44.4361556 Z" id="Fill-36"></path>
                    <path d="M78.7075515,36.57254 L21.5267735,68.9157895 L42.5610984,81.0302059 L99.7418764,48.6869565 L78.7075515,36.57254 Z M78.5272311,12.2128146 L57.4929062,0.0983981693 L0.312128146,32.4416476 L21.3464531,44.5560641 L78.5272311,12.2128146 Z" id="Fill-39"></path>
                </g>
                <g id="Logo-Copy-90" transform="translate(440.000000, 80.000000)">
                    <path d="M21.3473684,93.2736842 L21.3473684,117.85492 L42.637232,105.849095 L21.3473684,93.2736842 Z" id="Fill-35"></path>
                    <path d="M21.5011442,44.4361556 L0.315789474,32.4407323 L0.132723112,105.598627 L21.3226545,117.850343 L21.3501144,93.5757437 L42.4988558,105.70389 L42.5629291,81.182151 L21.4141876,69.008238 L21.5011442,44.4361556 Z" id="Fill-36"></path>
                    <path d="M42.5610984,81.1322654 L42.5610984,105.713501 L99.7418764,73.3702517 L99.7418764,48.789016 L42.5610984,81.1322654 Z M78.5272311,12.2128146 L21.3464531,44.5560641 L21.3464531,69.1372998 L78.5272311,36.7940503 L78.5272311,12.2128146 Z" id="Fill-37"></path>
                    <path d="M78.7075515,36.57254 L21.5267735,68.9157895 L42.5610984,81.0302059 L99.7418764,48.6869565 L78.7075515,36.57254 Z M78.5272311,12.2128146 L57.4929062,0.0983981693 L0.312128146,32.4416476 L21.3464531,44.5560641 L78.5272311,12.2128146 Z" id="Fill-39"></path>
                </g>
                <g id="Logo-Copy-89" transform="translate(360.000000, 216.947368) scale(-1, 1) translate(-360.000000, -216.947368) translate(310.000000, 158.000000)">
                    <path d="M21.5011442,44.4361556 L0.315789474,32.4407323 L0.132723112,105.598627 L21.3226545,117.850343 L21.3501144,93.5757437 L42.4988558,105.70389 L42.5629291,81.182151 L21.4141876,69.008238 L21.5011442,44.4361556 Z" id="Fill-36"></path>
                    <path d="M78.7075515,36.57254 L21.5267735,68.9157895 L42.5610984,81.0302059 L99.7418764,48.6869565 L78.7075515,36.57254 Z M78.5272311,12.2128146 L57.4929062,0.0983981693 L0.312128146,32.4416476 L21.3464531,44.5560641 L78.5272311,12.2128146 Z" id="Fill-39"></path>
                </g>
                <g id="Logo-Copy-94" transform="translate(580.000000, 58.947368) scale(-1, 1) translate(-580.000000, -58.947368) translate(530.000000, 0.000000)">
                    <path d="M21.3473684,93.2736842 L21.3473684,117.85492 L42.637232,105.849095 L21.3473684,93.2736842 Z" id="Fill-35"></path>
                    <path d="M21.5011442,44.4361556 L0.315789474,32.4407323 L0.132723112,105.598627 L21.3226545,117.850343 L21.3501144,93.5757437 L42.4988558,105.70389 L42.5629291,81.182151 L21.4141876,69.008238 L21.5011442,44.4361556 Z" id="Fill-36"></path>
                    <path d="M42.5610984,81.1322654 L42.5610984,105.713501 L99.7418764,73.3702517 L99.7418764,48.789016 L42.5610984,81.1322654 Z M78.5272311,12.2128146 L21.3464531,44.5560641 L21.3464531,69.1372998 L78.5272311,36.7940503 L78.5272311,12.2128146 Z" id="Fill-37"></path>
                    <path d="M78.7075515,36.57254 L21.5267735,68.9157895 L42.5610984,81.0302059 L99.7418764,48.6869565 L78.7075515,36.57254 Z M78.5272311,12.2128146 L57.4929062,0.0983981693 L0.312128146,32.4416476 L21.3464531,44.5560641 L78.5272311,12.2128146 Z" id="Fill-39"></path>
                </g>
                <g id="Logo-Copy-92" transform="translate(580.000000, 216.947368) scale(-1, 1) translate(-580.000000, -216.947368) translate(530.000000, 158.000000)">
                    <path d="M21.3473684,93.2736842 L21.3473684,117.85492 L42.637232,105.849095 L21.3473684,93.2736842 Z" id="Fill-35"></path>
                    <path d="M21.5011442,44.4361556 L0.315789474,32.4407323 L0.132723112,105.598627 L21.3226545,117.850343 L21.3501144,93.5757437 L42.4988558,105.70389 L42.5629291,81.182151 L21.4141876,69.008238 L21.5011442,44.4361556 Z" id="Fill-36"></path>
                    <path d="M42.5610984,81.1322654 L42.5610984,105.713501 L99.7418764,73.3702517 L99.7418764,48.789016 L42.5610984,81.1322654 Z M78.5272311,12.2128146 L21.3464531,44.5560641 L21.3464531,69.1372998 L78.5272311,36.7940503 L78.5272311,12.2128146 Z" id="Fill-37"></path>
                    <path d="M78.7075515,36.57254 L21.5267735,68.9157895 L42.5610984,81.0302059 L99.7418764,48.6869565 L78.7075515,36.57254 Z M78.5272311,12.2128146 L57.4929062,0.0983981693 L0.312128146,32.4416476 L21.3464531,44.5560641 L78.5272311,12.2128146 Z" id="Fill-39"></path>
                </g>
                <g id="Logo-Copy-90" transform="translate(440.000000, 238.000000)">
                    <path d="M21.3473684,93.2736842 L21.3473684,117.85492 L42.637232,105.849095 L21.3473684,93.2736842 Z" id="Fill-35"></path>
                    <path d="M21.5011442,44.4361556 L0.315789474,32.4407323 L0.132723112,105.598627 L21.3226545,117.850343 L21.3501144,93.5757437 L42.4988558,105.70389 L42.5629291,81.182151 L21.4141876,69.008238 L21.5011442,44.4361556 Z" id="Fill-36"></path>
                    <path d="M42.5610984,81.1322654 L42.5610984,105.713501 L99.7418764,73.3702517 L99.7418764,48.789016 L42.5610984,81.1322654 Z M78.5272311,12.2128146 L21.3464531,44.5560641 L21.3464531,69.1372998 L78.5272311,36.7940503 L78.5272311,12.2128146 Z" id="Fill-37"></path>
                    <path d="M78.7075515,36.57254 L21.5267735,68.9157895 L42.5610984,81.0302059 L99.7418764,48.6869565 L78.7075515,36.57254 Z M78.5272311,12.2128146 L57.4929062,0.0983981693 L0.312128146,32.4416476 L21.3464531,44.5560641 L78.5272311,12.2128146 Z" id="Fill-39"></path>
                </g>
                <g id="Logo-Copy-89" transform="translate(360.000000, 374.947368) scale(-1, 1) translate(-360.000000, -374.947368) translate(310.000000, 316.000000)">
                    <path d="M21.5011442,44.4361556 L0.315789474,32.4407323 L0.132723112,105.598627 L21.3226545,117.850343 L21.3501144,93.5757437 L42.4988558,105.70389 L42.5629291,81.182151 L21.4141876,69.008238 L21.5011442,44.4361556 Z" id="Fill-36"></path>
                    <path d="M78.7075515,36.57254 L21.5267735,68.9157895 L42.5610984,81.0302059 L99.7418764,48.6869565 L78.7075515,36.57254 Z M78.5272311,12.2128146 L57.4929062,0.0983981693 L0.312128146,32.4416476 L21.3464531,44.5560641 L78.5272311,12.2128146 Z" id="Fill-39"></path>
                </g>
                <g id="Logo-Copy-92" transform="translate(580.000000, 374.947368) scale(-1, 1) translate(-580.000000, -374.947368) translate(530.000000, 316.000000)">
                    <path d="M21.3473684,93.2736842 L21.3473684,117.85492 L42.637232,105.849095 L21.3473684,93.2736842 Z" id="Fill-35"></path>
                    <path d="M21.5011442,44.4361556 L0.315789474,32.4407323 L0.132723112,105.598627 L21.3226545,117.850343 L21.3501144,93.5757437 L42.4988558,105.70389 L42.5629291,81.182151 L21.4141876,69.008238 L21.5011442,44.4361556 Z" id="Fill-36"></path>
                    <path d="M42.5610984,81.1322654 L42.5610984,105.713501 L99.7418764,73.3702517 L99.7418764,48.789016 L42.5610984,81.1322654 Z M78.5272311,12.2128146 L21.3464531,44.5560641 L21.3464531,69.1372998 L78.5272311,36.7940503 L78.5272311,12.2128146 Z" id="Fill-37"></path>
                    <path d="M78.7075515,36.57254 L21.5267735,68.9157895 L42.5610984,81.0302059 L99.7418764,48.6869565 L78.7075515,36.57254 Z M78.5272311,12.2128146 L57.4929062,0.0983981693 L0.312128146,32.4416476 L21.3464531,44.5560641 L78.5272311,12.2128146 Z" id="Fill-39"></path>
                </g>
                <g id="Logo-Copy-131" transform="translate(440.000000, 396.000000)">
                    <path d="M21.5011442,44.4361556 L0.315789474,32.4407323 L0.132723112,105.598627 L21.3226545,117.850343 L21.3501144,93.5757437 L42.4988558,105.70389 L42.5629291,81.182151 L21.4141876,69.008238 L21.5011442,44.4361556 Z" id="Fill-36"></path>
                    <path d="M42.5610984,81.1322654 L42.5610984,105.713501 L99.7418764,73.3702517 L99.7418764,48.789016 L42.5610984,81.1322654 Z M78.5272311,12.2128146 L21.3464531,44.5560641 L21.3464531,69.1372998 L78.5272311,36.7940503 L78.5272311,12.2128146 Z" id="Fill-37"></path>
                    <path d="M78.7075515,36.57254 L21.5267735,68.9157895 L42.5610984,81.0302059 L99.7418764,48.6869565 L78.7075515,36.57254 Z M78.5272311,12.2128146 L57.4929062,0.0983981693 L0.312128146,32.4416476 L21.3464531,44.5560641 L78.5272311,12.2128146 Z" id="Fill-39"></path>
                </g>
                <g id="Logo-Copy-130" transform="translate(360.000000, 532.947368) scale(-1, 1) translate(-360.000000, -532.947368) translate(310.000000, 474.000000)">
                    <path d="M78.7075515,36.57254 L21.5267735,68.9157895 L42.5610984,81.0302059 L99.7418764,48.6869565 L78.7075515,36.57254 Z M78.5272311,12.2128146 L57.4929062,0.0983981693 L0.312128146,32.4416476 L21.3464531,44.5560641 L78.5272311,12.2128146 Z" id="Fill-39"></path>
                </g>
                <g id="Logo-Copy-127" transform="translate(580.000000, 532.947368) scale(-1, 1) translate(-580.000000, -532.947368) translate(530.000000, 474.000000)">
                    <path d="M78.7075515,36.57254 L21.5267735,68.9157895 L42.5610984,81.0302059 L99.7418764,48.6869565 L78.7075515,36.57254 Z M78.5272311,12.2128146 L57.4929062,0.0983981693 L0.312128146,32.4416476 L21.3464531,44.5560641 L78.5272311,12.2128146 Z" id="Fill-39"></path>
                </g>
            </g>
            <rect id="Mask-Copy" fill="url(#linearGradient-1)" sketch:type="MSShapeGroup" x="409" y="80" width="220" height="400"></rect>
        </g>
    </g>
</svg>