<?xml version="1.0" encoding="UTF-8" standalone="no"?>
<svg width="50px" height="49px" viewBox="0 0 50 49" version="1.1" xmlns="http://www.w3.org/2000/svg" xmlns:xlink="http://www.w3.org/1999/xlink" xmlns:sketch="http://www.bohemiancoding.com/sketch/ns">
    <!-- Generator: Sketch Beta 3.4.3 (16051) - http://www.bohemiancoding.com/sketch -->
    <title>Shape</title>
    <desc>Created with Sketch Beta.</desc>
    <defs></defs>
    <g id="Page-1" stroke="none" stroke-width="1" fill="none" fill-rule="evenodd" sketch:type="MSPage">
        <g id="Homepage-Web" sketch:type="MSArtboardGroup" transform="translate(-369.000000, -2349.000000)" stroke-width="2" stroke="#E74E40">
            <g id="About" sketch:type="MSLayerGroup" transform="translate(240.000000, 2099.000000)">
                <g id="Tiles" transform="translate(0.000000, 212.000000)" sketch:type="MSShapeGroup">
                    <g id="1">
                        <path d="M154.000899,38 C140.193503,38 129,49.1923803 129,63 C129,73.557777 135.545287,82.587564 144.797691,86.2525384 L151.122158,70.2722167 C148.227019,69.1256627 146.178543,66.3026328 146.178543,63 C146.178543,58.6804295 149.681103,55.1787672 154.000674,55.1787672 C158.320469,55.1787672 161.82303,58.6804295 161.82303,63 C161.82303,66.3026328 159.772531,69.1258873 156.879414,70.2722167 L163.202085,86.2525384 C172.45651,82.587564 179,73.557777 179,63 C179,49.1923803 167.808518,38 154.000899,38 Z" id="Shape"></path>
                    </g>
                </g>
            </g>
        </g>
    </g>
</svg>