<?xml version="1.0" encoding="UTF-8" standalone="no"?>
<svg width="45px" height="48px" viewBox="0 0 45 48" version="1.1" xmlns="http://www.w3.org/2000/svg" xmlns:xlink="http://www.w3.org/1999/xlink" xmlns:sketch="http://www.bohemiancoding.com/sketch/ns">
    <!-- Generator: Sketch Beta 3.4.3 (16051) - http://www.bohemiancoding.com/sketch -->
    <title>icon</title>
    <desc>Created with Sketch Beta.</desc>
    <defs></defs>
    <g id="Page-1" stroke="none" stroke-width="1" fill="none" fill-rule="evenodd" sketch:type="MSPage">
        <g id="Homepage-Web" sketch:type="MSArtboardGroup" transform="translate(-1025.000000, -2352.000000)" fill="#E74E40">
            <g id="About" sketch:type="MSLayerGroup" transform="translate(240.000000, 2099.000000)">
                <g id="Tiles" transform="translate(0.000000, 212.000000)" sketch:type="MSShapeGroup">
                    <g id="4" transform="translate(654.000000, 0.000000)">
                        <path d="M144.254455,68.1469096 C144.731395,67.2008554 145,66.1317957 145,65 C145,64.2495915 144.881921,63.5267618 144.663329,62.8490776 L163.312673,52.0818741 C164.583288,53.8491132 166.657242,55 169,55 C172.865993,55 176,51.8659932 176,48 C176,44.1340068 172.865993,41 169,41 C165.134007,41 162,44.1340068 162,48 C162,48.8079201 162.136872,49.583872 162.388693,50.3059329 L143.77974,61.0498167 C142.518709,59.2082758 140.400458,58 138,58 C134.134007,58 131,61.1340068 131,65 C131,68.8659932 134.134007,72 138,72 C140.012232,72 141.826157,71.1509489 143.103067,69.7915564 L162.108694,80.7644607 C162.03727,81.1655256 162,81.5784104 162,82 C162,85.8659932 165.134007,89 169,89 C172.865993,89 176,85.8659932 176,82 C176,78.1340068 172.865993,75 169,75 C166.275175,75 163.913979,76.5568789 162.757437,78.8296114 L144.254455,68.1469096 Z M169,53 C171.761424,53 174,50.7614237 174,48 C174,45.2385763 171.761424,43 169,43 C166.238576,43 164,45.2385763 164,48 C164,50.7614237 166.238576,53 169,53 Z M138,70 C140.761424,70 143,67.7614237 143,65 C143,62.2385763 140.761424,60 138,60 C135.238576,60 133,62.2385763 133,65 C133,67.7614237 135.238576,70 138,70 Z M169,87 C171.761424,87 174,84.7614237 174,82 C174,79.2385763 171.761424,77 169,77 C166.238576,77 164,79.2385763 164,82 C164,84.7614237 166.238576,87 169,87 Z" id="icon"></path>
                    </g>
                </g>
            </g>
        </g>
    </g>
</svg>