<?xml version="1.0" encoding="UTF-8" standalone="no"?>
<svg width="31px" height="50px" viewBox="0 0 31 50" version="1.1" xmlns="http://www.w3.org/2000/svg" xmlns:xlink="http://www.w3.org/1999/xlink" xmlns:sketch="http://www.bohemiancoding.com/sketch/ns">
    <!-- Generator: Sketch Beta 3.4.3 (16051) - http://www.bohemiancoding.com/sketch -->
    <title>Icon</title>
    <desc>Created with Sketch Beta.</desc>
    <defs></defs>
    <g id="Page-1" stroke="none" stroke-width="1" fill="none" fill-rule="evenodd" sketch:type="MSPage">
        <g id="Homepage-Web" sketch:type="MSArtboardGroup" transform="translate(-705.000000, -2348.000000)" stroke="#E74E40" stroke-width="2">
            <g id="About" sketch:type="MSLayerGroup" transform="translate(240.000000, 2099.000000)">
                <g id="Tiles" transform="translate(0.000000, 212.000000)" sketch:type="MSShapeGroup">
                    <g id="2" transform="translate(327.000000, 0.000000)">
                        <g id="Icon" transform="translate(138.000000, 37.000000)">
                            <path d="M0,30.7692308 C0,31.7307692 30.7692308,33.6538462 30.7692308,38.4615385 L30.7692308,50 C30.7692308,45.1923077 0,43.2692308 0,42.3076923 L0,30.7692308 Z M0,1.42108547e-14 C0,0.961538462 30.7692308,2.88461538 30.7692308,7.69230769 L30.7692308,19.2307692 C30.7692308,14.4230769 0,12.5 0,11.5384615 L0,1.42108547e-14 Z M0,15.3846154 C0,16.3461538 30.7692308,18.2692308 30.7692308,23.0769231 L30.7692308,34.6153846 C30.7692308,29.8076923 0,27.8846154 0,26.9230769 L0,15.3846154 Z" id="Shape" transform="translate(15.384615, 25.000000) scale(1, -1) translate(-15.384615, -25.000000) "></path>
                        </g>
                    </g>
                </g>
            </g>
        </g>
    </g>
</svg>