<?xml version="1.0" encoding="UTF-8" standalone="no"?>
<svg width="60px" height="43px" viewBox="0 0 60 43" version="1.1" xmlns="http://www.w3.org/2000/svg" xmlns:xlink="http://www.w3.org/1999/xlink" xmlns:sketch="http://www.bohemiancoding.com/sketch/ns">
    <!-- Generator: Sketch Beta 3.4.3 (16051) - http://www.bohemiancoding.com/sketch -->
    <title>icon</title>
    <desc>Created with Sketch Beta.</desc>
    <defs></defs>
    <g id="Page-1" stroke="none" stroke-width="1" fill="none" fill-rule="evenodd" sketch:type="MSPage">
        <g id="Homepage-Web" sketch:type="MSArtboardGroup" transform="translate(-691.000000, -2617.000000)" fill="#E74E40">
            <g id="About" sketch:type="MSLayerGroup" transform="translate(240.000000, 2099.000000)">
                <g id="Tiles" transform="translate(0.000000, 212.000000)" sketch:type="MSShapeGroup">
                    <g id="5" transform="translate(327.000000, 260.000000)">
                        <path d="M142,67.75 L142,87.5 L142,89 L124,89 L124,87 L140,87 L140,46 L168,46 L168,87 L184,87 L184,89 L166,89 L166,87.5 L166,48 L148.333333,48 L161,50 L161,85 L142,89 L142,67.75 Z M142,49 L159,52 L159,83.4609375 L142,87 L142,49 Z M155,69 C156.104569,69 157,68.1045695 157,67 C157,65.8954305 156.104569,65 155,65 C153.895431,65 153,65.8954305 153,67 C153,68.1045695 153.895431,69 155,69 Z" id="icon"></path>
                    </g>
                </g>
            </g>
        </g>
    </g>
</svg>