<?xml version="1.0" encoding="utf-8"?>
<!-- Generator: Adobe Illustrator 19.0.0, SVG Export Plug-In . SVG Version: 6.00 Build 0)  -->
<svg version="1.1" id="Layer_1" xmlns:sketch="http://www.bohemiancoding.com/sketch/ns"
	 xmlns="http://www.w3.org/2000/svg" xmlns:xlink="http://www.w3.org/1999/xlink" x="0px" y="0px" viewBox="-74 46 50 49"
	 style="enable-background:new -74 46 50 49;" xml:space="preserve">
<style type="text/css">
	.st0{fill:#E74E40;}
</style>
<title>Shape</title>
<desc>Created with Sketch Beta.</desc>
<g id="Page-1" sketch:type="MSPage">
	<g id="About-Web" transform="translate(-369.000000, -410.000000)" sketch:type="MSArtboardGroup">
		<g id="About" transform="translate(240.000000, 160.000000)" sketch:type="MSLayerGroup">
			<g id="Tiles" transform="translate(0.000000, 212.000000)" sketch:type="MSShapeGroup">
				<g id="_x31_">
					<g id="Shape">
						<path class="st0" d="M80,86c12.7,0,23,10.3,23,23c0,8.8-4.9,16.7-12.7,20.6l-4.9-12.4c2.7-1.8,4.4-4.8,4.4-8.2
							c0-5.4-4.4-9.8-9.8-9.8c-5.4,0-9.8,4.4-9.8,9.8c0,3.4,1.7,6.4,4.4,8.2l-4.9,12.4C61.9,125.7,57,117.8,57,109
							C57,96.3,67.3,86,80,86 M80,84c-13.8,0-25,11.2-25,25c0,10.6,6.5,19.6,15.8,23.3l6.3-16c-2.9-1.1-4.9-4-4.9-7.3
							c0-4.3,3.5-7.8,7.8-7.8c4.3,0,7.8,3.5,7.8,7.8c0,3.3-2.1,6.1-4.9,7.3l6.3,16c9.3-3.7,15.8-12.7,15.8-23.3
							C105,95.2,93.8,84,80,84L80,84z"/>
					</g>
				</g>
			</g>
		</g>
	</g>
</g>
</svg>
