<?xml version="1.0" encoding="utf-8"?>
<!-- Generator: Adobe Illustrator 19.0.0, SVG Export Plug-In . SVG Version: 6.00 Build 0)  -->
<svg version="1.1" id="Layer_1" xmlns:sketch="http://www.bohemiancoding.com/sketch/ns"
	 xmlns="http://www.w3.org/2000/svg" xmlns:xlink="http://www.w3.org/1999/xlink" x="0px" y="0px" viewBox="-71 51 56 39"
	 style="enable-background:new -71 51 56 39;" xml:space="preserve">
<style type="text/css">
	.st0{fill:#E74E40;}
</style>
<title>Shape + Path + Path</title>
<desc>Created with Sketch Beta.</desc>
<path class="st0" d="M-15,63.8C-15.1,63.8-15.1,63.8-15,63.8c-0.1-0.1-0.1-0.2-0.1-0.3c0,0,0-0.1-0.1-0.1c0-0.1-0.1-0.1-0.1-0.1
	c0,0,0,0-0.1-0.1c0,0,0,0,0,0c-0.1,0-0.1-0.1-0.2-0.1c0,0,0,0,0,0l-14.6-5.6v-0.9c0-0.2,0-0.4-0.1-0.7c-0.1-0.4-0.3-0.8-0.6-1.2
	c-0.1-0.2-0.3-0.4-0.5-0.5c-2.1-2.1-6.9-3.2-11.5-3.2h0h0c-5.3,0-11,1.5-12.3,4.3c-0.2,0.4-0.3,0.8-0.3,1.3v0.7l-14.8,5.6
	c0,0,0,0,0,0c-0.1,0-0.1,0.1-0.2,0.1c0,0,0,0,0,0c0,0,0,0-0.1,0.1c0,0-0.1,0.1-0.1,0.1c0,0,0,0.1-0.1,0.1c0,0.1-0.1,0.1-0.1,0.2
	c0,0,0,0.1,0,0.1c0,0.1,0,0.2,0,0.3c0,0,0,0,0,0c0,0,0,0,0,0v0v14.6c0,0.4,0.3,0.8,0.7,1l27.1,10.4c0,0,0,0,0,0
	c0.1,0,0.2,0.1,0.4,0.1s0.2,0,0.3-0.1c0,0,0,0,0,0l26.8-10.1c0.4-0.2,0.7-0.6,0.7-1V64.1C-15,64-15,63.9-15,63.8z M-53.3,56.3
	c0.5-1.4,4.4-3.2,10.4-3.2c5.2,0,8.8,1.4,10,2.6c0.3,0.3,0.4,0.6,0.4,0.8c0,1.4-4.1,3.5-10.5,3.5s-10.5-2.1-10.5-3.5
	C-53.3,56.5-53.3,56.4-53.3,56.3z M-53.1,63.5v-3.7c2.4,1.6,6.4,2.4,10.4,2.4c3.9,0,8-0.8,10.3-2.4v3.7c0,1.4-4,3.4-10.3,3.5v0
	c0,0-0.1,0-0.1,0c0,0-0.1,0-0.1,0v0C-49.1,66.9-53.1,64.9-53.1,63.5z M-44.1,87.1l-24.7-9.3h0V65.5l24.7,9.3V87.1z M-42.9,73.1
	l-24.1-9.2l11.5-4.3v3.9c0,3.6,6.5,5.6,12.6,5.6c6.1,0,12.6-2,12.6-5.6v-3.7l11.2,4.3l-7.6,2.8L-42.9,73.1z M-17.1,78L-17.1,78
	l-24.7,9.3V74.9l24.7-9.3V78z"/>
</svg>
