<?xml version="1.0" encoding="UTF-8" standalone="no"?>
<svg width="50px" height="40px" viewBox="0 0 50 40" version="1.1" xmlns="http://www.w3.org/2000/svg" xmlns:xlink="http://www.w3.org/1999/xlink" xmlns:sketch="http://www.bohemiancoding.com/sketch/ns">
    <!-- Generator: Sketch Beta 3.4.3 (16051) - http://www.bohemiancoding.com/sketch -->
    <title>icon</title>
    <desc>Created with Sketch Beta.</desc>
    <defs></defs>
    <g id="Page-1" stroke="none" stroke-width="1" fill="none" fill-rule="evenodd" sketch:type="MSPage">
        <g id="Homepage-Web" sketch:type="MSArtboardGroup" transform="translate(-369.000000, -2620.000000)" fill="#E74E40">
            <g id="About" sketch:type="MSLayerGroup" transform="translate(240.000000, 2099.000000)">
                <g id="Tiles" transform="translate(0.000000, 212.000000)" sketch:type="MSShapeGroup">
                    <g id="3" transform="translate(0.000000, 260.000000)">
                        <g id="icon" transform="translate(129.000000, 49.000000)">
                            <path d="M33.5810811,0 C28.6486486,0 26.2162162,1.14864865 25,2.36486486 C23.8513514,1.14864865 21.4189189,0 16.4189189,0 L0,0 L0,37.9719238 L16.4189189,37.9719257 C21.5480957,37.9719238 23.5135135,39.9989527 24.1216216,39.9989527 L25.8783784,39.9989527 C26.5540541,39.9989527 27.7180176,37.9719238 33.5135135,37.9719257 L50,37.9719238 L50,0 L33.5810811,0 Z M24,37.635498 C24,37.635498 21.6365883,36.0500755 16.4291471,36.0500755 L2,36.0500755 L2,2 L16.4291471,2 C23.7426721,2 23.9999998,4.76629145 23.9999998,4.76629145 L24,37.635498 Z M26,37.6399994 C26,37.6399994 28.3634117,36.0543766 33.5708529,36.0543766 L48,36.0543766 L48,2 L33.5708529,2 C26.2573279,2 26.0000002,4.76664088 26.0000002,4.76664088 L26,37.6399994 Z M31,28 L37,28 L37,30 L31,30 L31,28 Z M31,23 L43,23 L43,25 L31,25 L31,23 Z M31,13 L43,13 L43,15 L31,15 L31,13 Z M31,8 L43,8 L43,10 L31,10 L31,8 Z M31,18 L43,18 L43,20 L31,20 L31,18 Z M7,28 L19,28 L19,30 L7,30 L7,28 Z M7,23 L19,23 L19,25 L7,25 L7,23 Z M7,13 L19,13 L19,15 L7,15 L7,13 Z M13,8 L19,8 L19,10 L13,10 L13,8 Z M7,18 L19,18 L19,20 L7,20 L7,18 Z" id="Shape"></path>
                        </g>
                    </g>
                </g>
            </g>
        </g>
    </g>
</svg>