<?xml version="1.0" encoding="utf-8"?>
<!-- Generator: Adobe Illustrator 19.0.0, SVG Export Plug-In . SVG Version: 6.00 Build 0)  -->
<svg version="1.1" id="Layer_1" xmlns:sketch="http://www.bohemiancoding.com/sketch/ns"
	 xmlns="http://www.w3.org/2000/svg" xmlns:xlink="http://www.w3.org/1999/xlink" x="0px" y="0px" viewBox="-74 51 50 40"
	 style="enable-background:new -74 51 50 40;" xml:space="preserve">
<style type="text/css">
	.st0{fill:#E74E40;}
</style>
<title>icon</title>
<desc>Created with Sketch Beta.</desc>
<g>
	<rect x="-67" y="69" class="st0" width="12" height="2"/>
	<rect x="-67" y="74" class="st0" width="12" height="2"/>
	<rect x="-67" y="64" class="st0" width="12" height="2"/>
	<rect x="-67" y="79" class="st0" width="12" height="2"/>
	<path class="st0" d="M-40.4,51c-4.9,0-7.4,1.1-8.6,2.4c-1.1-1.2-3.6-2.4-8.6-2.4H-74v38h16.4c5.1,0,7.1,2,7.7,2h1.8
		c0.7,0,1.8-2,7.6-2H-24V51H-40.4z M-50,88.6c0,0-2.4-1.6-7.6-1.6H-72V53h14.4c7.3,0,7.6,2.8,7.6,2.8V88.6z M-26,87.1h-14.4
		c-5.2,0-7.6,1.6-7.6,1.6V55.8c0,0,0.3-2.8,7.6-2.8H-26V87.1z"/>
	<rect x="-61" y="59" class="st0" width="6" height="2"/>
	<rect x="-43" y="79" class="st0" width="6" height="2"/>
	<rect x="-43" y="74" class="st0" width="12" height="2"/>
	<rect x="-43" y="64" class="st0" width="12" height="2"/>
	<rect x="-43" y="59" class="st0" width="12" height="2"/>
	<rect x="-43" y="69" class="st0" width="12" height="2"/>
</g>
</svg>
