<?xml version="1.0" encoding="UTF-8" standalone="no"?>
<svg width="170px" height="109px" viewBox="0 0 170 109" version="1.1" xmlns="http://www.w3.org/2000/svg" xmlns:xlink="http://www.w3.org/1999/xlink" xmlns:sketch="http://www.bohemiancoding.com/sketch/ns">
    <!-- Generator: Sketch Beta 3.4.3 (16051) - http://www.bohemiancoding.com/sketch -->
    <title>Logo</title>
    <desc>Created with Sketch Beta.</desc>
    <defs></defs>
    <g id="Page-1" stroke="none" stroke-width="1" fill="none" fill-rule="evenodd" sketch:type="MSPage">
        <g id="Intro" sketch:type="MSLayerGroup" transform="translate(-635.000000, -39.000000)">
            <g id="Let-the-Scala-compil-+-typelevel.scala" transform="translate(635.000000, 39.000000)" sketch:type="MSShapeGroup">
                <g id="Logo">
                    <path d="M133.789275,0.0269800715 L59.8163885,40.5404803 L29.3274456,24.5788452 L-0.000291760221,40.6398569 L-0.000291760221,58.1769034 L96.9428765,108.932039 L126.270614,92.8710271 L126.270614,75.3339806 L112.152337,67.9421155 L169.754557,36.3929688 L169.754557,18.8588452 L158.063725,12.7354931 L145.48886,19.6217067 L145.483024,6.1474093 L133.789275,0.0269800715 Z" id="Fill-1" stroke="#EEF2F4"></path>
                    <path d="M133.789275,0.0269800715 L59.8163885,40.5404803 L29.3274456,24.5788452 L-0.000291760221,40.6398569 L96.9428765,91.3949923 L126.270614,75.3339806 L95.7816709,59.3723454 L169.754557,18.8588452 L158.063725,12.7354931 L84.0908388,53.2489934 L71.5101382,46.6609096 L145.483024,6.1474093 L133.789275,0.0269800715 Z" id="Fill-2" stroke="#EEF2F4"></path>
                    <rect id="Rectangle-569" fill="#FFFFFF" x="96.4013592" y="90.776699" width="1.06918239" height="17.0873786"></rect>
                </g>
            </g>
        </g>
    </g>
</svg>