<?xml version="1.0" encoding="UTF-8" standalone="no"?>
<svg width="172px" height="40px" viewBox="0 0 172 40" version="1.1" xmlns="http://www.w3.org/2000/svg" xmlns:xlink="http://www.w3.org/1999/xlink" xmlns:sketch="http://www.bohemiancoding.com/sketch/ns">
    <!-- Generator: Sketch Beta 3.4.3 (16051) - http://www.bohemiancoding.com/sketch -->
    <title>typelevel.scala + Rectangle 97 + Rectangle 97 Copy + Rectangle 98 Copy</title>
    <desc>Created with Sketch Beta.</desc>
    <defs>
        <linearGradient x1="50%" y1="100%" x2="50%" y2="3.47975128%" id="linearGradient-1">
            <stop stop-color="#FD2943" offset="0%"></stop>
            <stop stop-color="#A40E4A" offset="100%"></stop>
        </linearGradient>
        <rect id="path-2" x="0" y="0" width="40" height="40"></rect>
    </defs>
    <g id="Page-1" stroke="none" stroke-width="1" fill="none" fill-rule="evenodd" sketch:type="MSPage">
        <g id="Homepage-Web" sketch:type="MSArtboardGroup" transform="translate(-240.000000, -20.000000)">
            <g id="Header" sketch:type="MSLayerGroup">
                <g id="typelevel.scala-+-Rectangle-97-+-Rectangle-97-Copy-+-Rectangle-98-Copy" transform="translate(240.000000, 20.000000)">
                    <path d="M50.054,19.088 L50.054,17.36 L51.566,17.36 L51.566,14.858 L53.69,14.858 L53.69,17.36 L55.85,17.36 L55.85,19.088 L53.69,19.088 L53.69,23.102 C53.69,23.4860019 53.7589993,23.8039987 53.897,24.056 C54.0350007,24.3080013 54.3439976,24.434 54.824,24.434 C54.9680007,24.434 55.1239992,24.4190002 55.292,24.389 C55.4600008,24.3589999 55.6099993,24.3140003 55.742,24.254 L55.814,25.946 C55.621999,26.0180004 55.3940013,26.0749998 55.13,26.117 C54.8659987,26.1590002 54.6140012,26.18 54.374,26.18 C53.7979971,26.18 53.3300018,26.0990008 52.97,25.937 C52.6099982,25.7749992 52.325001,25.5530014 52.115,25.271 C51.9049989,24.9889986 51.7610004,24.6650018 51.683,24.299 C51.6049996,23.9329982 51.566,23.5400021 51.566,23.12 L51.566,19.088 L50.054,19.088 Z M56.12,17.36 L58.514,17.36 L60.926,23.642 L60.962,23.642 L63.104,17.36 L65.354,17.36 L61.268,27.854 C61.1119992,28.250002 60.9440009,28.6009985 60.764,28.907 C60.5839991,29.2130015 60.3680013,29.470999 60.116,29.681 C59.8639987,29.8910011 59.5670017,30.0499995 59.225,30.158 C58.8829983,30.2660005 58.4720024,30.32 57.992,30.32 C57.8119991,30.32 57.6290009,30.3110001 57.443,30.293 C57.2569991,30.2749999 57.068001,30.2420002 56.876,30.194 L57.056,28.322 C57.2000007,28.3700002 57.3409993,28.4029999 57.479,28.421 C57.6170007,28.4390001 57.7459994,28.448 57.866,28.448 C58.0940011,28.448 58.2859992,28.4210003 58.442,28.367 C58.5980008,28.3129997 58.7299995,28.2290006 58.838,28.115 C58.9460005,28.0009994 59.0419996,27.8600008 59.126,27.692 C59.2100004,27.5239992 59.2999995,27.3260011 59.396,27.098 L59.828,26 L56.12,17.36 Z M68.72,17.36 L68.72,18.566 L68.774,18.566 C68.8820005,18.3979992 69.0229991,18.2270009 69.197,18.053 C69.3710009,17.8789991 69.5839987,17.7230007 69.836,17.585 C70.0880013,17.4469993 70.3729984,17.3330005 70.691,17.243 C71.0090016,17.1529996 71.365998,17.108 71.762,17.108 C72.3740031,17.108 72.9379974,17.2249988 73.454,17.459 C73.9700026,17.6930012 74.4139981,18.013998 74.786,18.422 C75.1580019,18.830002 75.445999,19.3099972 75.65,19.862 C75.854001,20.4140028 75.956,21.0079968 75.956,21.644 C75.956,22.2800032 75.857001,22.8769972 75.659,23.435 C75.460999,23.9930028 75.1790018,24.4789979 74.813,24.893 C74.4469982,25.3070021 74.0030026,25.6369988 73.481,25.883 C72.9589974,26.1290012 72.3680033,26.252 71.708,26.252 C71.0959969,26.252 70.5350025,26.1260013 70.025,25.874 C69.5149974,25.6219987 69.1220014,25.2800022 68.846,24.848 L68.81,24.848 L68.81,30.32 L66.65,30.32 L66.65,17.36 L68.72,17.36 Z M73.76,21.644 C73.76,21.3079983 73.7090005,20.9750017 73.607,20.645 C73.5049995,20.3149984 73.352001,20.0180013 73.148,19.754 C72.943999,19.4899987 72.6860016,19.2770008 72.374,19.115 C72.0619984,18.9529992 71.6960021,18.872 71.276,18.872 C70.879998,18.872 70.5260016,18.9559992 70.214,19.124 C69.9019984,19.2920008 69.6350011,19.5079987 69.413,19.772 C69.1909989,20.0360013 69.0230006,20.3359983 68.909,20.672 C68.7949994,21.0080017 68.738,21.3439983 68.738,21.68 C68.738,22.0160017 68.7949994,22.3489984 68.909,22.679 C69.0230006,23.0090017 69.1909989,23.3059987 69.413,23.57 C69.6350011,23.8340013 69.9019984,24.0469992 70.214,24.209 C70.5260016,24.3710008 70.879998,24.452 71.276,24.452 C71.6960021,24.452 72.0619984,24.3680008 72.374,24.2 C72.6860016,24.0319992 72.943999,23.8160013 73.148,23.552 C73.352001,23.2879987 73.5049995,22.9880017 73.607,22.652 C73.7090005,22.3159983 73.76,21.9800017 73.76,21.644 L73.76,21.644 Z M84.128,20.816 C84.128,20.5399986 84.0890004,20.2760013 84.011,20.024 C83.9329996,19.7719987 83.8100008,19.550001 83.642,19.358 C83.4739992,19.165999 83.2610013,19.0130006 83.003,18.899 C82.7449987,18.7849994 82.4420017,18.728 82.094,18.728 C81.4459968,18.728 80.8970022,18.9229981 80.447,19.313 C79.9969977,19.703002 79.7480002,20.2039969 79.7,20.816 L84.128,20.816 Z M86.288,21.788 L86.288,22.076 C86.288,22.1720005 86.2820001,22.2679995 86.27,22.364 L79.7,22.364 C79.7240001,22.6760016 79.8049993,22.9609987 79.943,23.219 C80.0810007,23.4770013 80.2639989,23.6989991 80.492,23.885 C80.7200011,24.0710009 80.9779986,24.2179995 81.266,24.326 C81.5540014,24.4340005 81.8539984,24.488 82.166,24.488 C82.7060027,24.488 83.1619981,24.389001 83.534,24.191 C83.9060019,23.992999 84.2119988,23.7200017 84.452,23.372 L85.892,24.524 C85.0399957,25.6760058 83.8040081,26.252 82.184,26.252 C81.5119966,26.252 80.8940028,26.1470011 80.33,25.937 C79.7659972,25.726999 79.2770021,25.4300019 78.863,25.046 C78.4489979,24.6619981 78.1250012,24.1910028 77.891,23.633 C77.6569988,23.0749972 77.54,22.4420035 77.54,21.734 C77.54,21.0379965 77.6569988,20.4050029 77.891,19.835 C78.1250012,19.2649972 78.445998,18.779002 78.854,18.377 C79.262002,17.974998 79.7449972,17.6630011 80.303,17.441 C80.8610028,17.2189989 81.4639968,17.108 82.112,17.108 C82.712003,17.108 83.2669974,17.206999 83.777,17.405 C84.2870025,17.603001 84.7279981,17.8969981 85.1,18.287 C85.4720019,18.677002 85.7629989,19.1629971 85.973,19.745 C86.183001,20.3270029 86.288,21.0079961 86.288,21.788 L86.288,21.788 Z M88.412,12.392 L90.572,12.392 L90.572,26 L88.412,26 L88.412,12.392 Z M99.284,20.816 C99.284,20.5399986 99.2450004,20.2760013 99.167,20.024 C99.0889996,19.7719987 98.9660008,19.550001 98.798,19.358 C98.6299992,19.165999 98.4170013,19.0130006 98.159,18.899 C97.9009987,18.7849994 97.5980017,18.728 97.25,18.728 C96.6019968,18.728 96.0530022,18.9229981 95.603,19.313 C95.1529977,19.703002 94.9040002,20.2039969 94.856,20.816 L99.284,20.816 Z M101.444,21.788 C101.444,21.8840005 101.444,21.9799995 101.444,22.076 C101.444,22.1720005 101.438,22.2679995 101.426,22.364 L94.856,22.364 C94.8800001,22.6760016 94.9609993,22.9609987 95.099,23.219 C95.2370007,23.4770013 95.4199989,23.6989991 95.648,23.885 C95.8760011,24.0710009 96.1339986,24.2179995 96.422,24.326 C96.7100014,24.4340005 97.0099984,24.488 97.322,24.488 C97.8620027,24.488 98.3179981,24.389001 98.69,24.191 C99.0620019,23.992999 99.3679988,23.7200017 99.608,23.372 L101.048,24.524 C100.195996,25.6760058 98.9600081,26.252 97.34,26.252 C96.6679966,26.252 96.0500028,26.1470011 95.486,25.937 C94.9219972,25.726999 94.4330021,25.4300019 94.019,25.046 C93.6049979,24.6619981 93.2810012,24.1910028 93.047,23.633 C92.8129988,23.0749972 92.696,22.4420035 92.696,21.734 C92.696,21.0379965 92.8129988,20.4050029 93.047,19.835 C93.2810012,19.2649972 93.601998,18.779002 94.01,18.377 C94.418002,17.974998 94.9009972,17.6630011 95.459,17.441 C96.0170028,17.2189989 96.6199968,17.108 97.268,17.108 C97.868003,17.108 98.4229974,17.206999 98.933,17.405 C99.4430025,17.603001 99.8839981,17.8969981 100.256,18.287 C100.628002,18.677002 100.918999,19.1629971 101.129,19.745 C101.339001,20.3270029 101.444,21.0079961 101.444,21.788 L101.444,21.788 Z M102.236,17.36 L104.594,17.36 L106.862,23.66 L106.898,23.66 L109.184,17.36 L111.47,17.36 L108.032,26 L105.728,26 L102.236,17.36 Z M118.85,20.816 C118.85,20.5399986 118.811,20.2760013 118.733,20.024 C118.655,19.7719987 118.532001,19.550001 118.364,19.358 C118.195999,19.165999 117.983001,19.0130006 117.725,18.899 C117.466999,18.7849994 117.164002,18.728 116.816,18.728 C116.167997,18.728 115.619002,18.9229981 115.169,19.313 C114.718998,19.703002 114.47,20.2039969 114.422,20.816 L118.85,20.816 Z M121.01,21.788 L121.01,22.076 C121.01,22.1720005 121.004,22.2679995 120.992,22.364 L114.422,22.364 C114.446,22.6760016 114.526999,22.9609987 114.665,23.219 C114.803001,23.4770013 114.985999,23.6989991 115.214,23.885 C115.442001,24.0710009 115.699999,24.2179995 115.988,24.326 C116.276001,24.4340005 116.575998,24.488 116.888,24.488 C117.428003,24.488 117.883998,24.389001 118.256,24.191 C118.628002,23.992999 118.933999,23.7200017 119.174,23.372 L120.614,24.524 C119.761996,25.6760058 118.526008,26.252 116.906,26.252 C116.233997,26.252 115.616003,26.1470011 115.052,25.937 C114.487997,25.726999 113.999002,25.4300019 113.585,25.046 C113.170998,24.6619981 112.847001,24.1910028 112.613,23.633 C112.378999,23.0749972 112.262,22.4420035 112.262,21.734 C112.262,21.0379965 112.378999,20.4050029 112.613,19.835 C112.847001,19.2649972 113.167998,18.779002 113.576,18.377 C113.984002,17.974998 114.466997,17.6630011 115.025,17.441 C115.583003,17.2189989 116.185997,17.108 116.834,17.108 C117.434003,17.108 117.988997,17.206999 118.499,17.405 C119.009003,17.603001 119.449998,17.8969981 119.822,18.287 C120.194002,18.677002 120.484999,19.1629971 120.695,19.745 C120.905001,20.3270029 121.01,21.0079961 121.01,21.788 L121.01,21.788 Z M123.134,12.392 L125.294,12.392 L125.294,26 L123.134,26 L123.134,12.392 Z M127.526,24.74 C127.526,24.3559981 127.666999,24.0260014 127.949,23.75 C128.231001,23.4739986 128.569998,23.336 128.966,23.336 C129.350002,23.336 129.685999,23.4679987 129.974,23.732 C130.262001,23.9960013 130.406,24.3199981 130.406,24.704 C130.406,25.0880019 130.265001,25.4179986 129.983,25.694 C129.700999,25.9700014 129.362002,26.108 128.966,26.108 C128.773999,26.108 128.591001,26.0720004 128.417,26 C128.242999,25.9279996 128.090001,25.8320006 127.958,25.712 C127.825999,25.5919994 127.721,25.4480008 127.643,25.28 C127.565,25.1119992 127.526,24.932001 127.526,24.74 L127.526,24.74 Z M137.336,19.664 C137.143999,19.4119987 136.880002,19.1930009 136.544,19.007 C136.207998,18.8209991 135.842002,18.728 135.446,18.728 C135.097998,18.728 134.780001,18.7999993 134.492,18.944 C134.203999,19.0880007 134.06,19.3279983 134.06,19.664 C134.06,20.0000017 134.218998,20.2369993 134.537,20.375 C134.855002,20.5130007 135.319997,20.6539993 135.932,20.798 C136.256002,20.8700004 136.582998,20.9659994 136.913,21.086 C137.243002,21.2060006 137.542999,21.364999 137.813,21.563 C138.083001,21.761001 138.301999,22.0069985 138.47,22.301 C138.638001,22.5950015 138.722,22.9519979 138.722,23.372 C138.722,23.9000026 138.623001,24.3469982 138.425,24.713 C138.226999,25.0790018 137.963002,25.3759989 137.633,25.604 C137.302998,25.8320011 136.919002,25.9969995 136.481,26.099 C136.042998,26.2010005 135.590002,26.252 135.122,26.252 C134.449997,26.252 133.796003,26.1290012 133.16,25.883 C132.523997,25.6369988 131.996002,25.2860023 131.576,24.83 L132.998,23.498 C133.238001,23.8100016 133.549998,24.067999 133.934,24.272 C134.318002,24.476001 134.743998,24.578 135.212,24.578 C135.368001,24.578 135.526999,24.5600002 135.689,24.524 C135.851001,24.4879998 136.000999,24.4310004 136.139,24.353 C136.277001,24.2749996 136.388,24.1700007 136.472,24.038 C136.556,23.9059993 136.598,23.744001 136.598,23.552 C136.598,23.1919982 136.433002,22.9340008 136.103,22.778 C135.772998,22.6219992 135.278003,22.4660008 134.618,22.31 C134.293998,22.2379996 133.979002,22.1450006 133.673,22.031 C133.366998,21.9169994 133.094001,21.7670009 132.854,21.581 C132.613999,21.3949991 132.422001,21.1640014 132.278,20.888 C132.133999,20.6119986 132.062,20.270002 132.062,19.862 C132.062,19.3819976 132.160999,18.9680017 132.359,18.62 C132.557001,18.2719983 132.817998,17.9870011 133.142,17.765 C133.466002,17.5429989 133.831998,17.3780005 134.24,17.27 C134.648002,17.1619995 135.067998,17.108 135.5,17.108 C136.124003,17.108 136.732997,17.2159989 137.327,17.432 C137.921003,17.6480011 138.391998,17.9779978 138.74,18.422 L137.336,19.664 Z M146.498,19.754 C146.329999,19.5139988 146.078002,19.3130008 145.742,19.151 C145.405998,18.9889992 145.064002,18.908 144.716,18.908 C144.319998,18.908 143.972001,18.9889992 143.672,19.151 C143.371998,19.3130008 143.123001,19.5259987 142.925,19.79 C142.726999,20.0540013 142.58,20.3509984 142.484,20.681 C142.388,21.0110017 142.34,21.3439983 142.34,21.68 C142.34,22.0160017 142.390999,22.3489984 142.493,22.679 C142.595001,23.0090017 142.747999,23.3059987 142.952,23.57 C143.156001,23.8340013 143.410998,24.0469992 143.717,24.209 C144.023002,24.3710008 144.379998,24.452 144.788,24.452 C145.124002,24.452 145.459998,24.3860007 145.796,24.254 C146.132002,24.1219993 146.401999,23.9300013 146.606,23.678 L147.956,25.046 C147.595998,25.4300019 147.137003,25.726999 146.579,25.937 C146.020997,26.1470011 145.418003,26.252 144.77,26.252 C144.133997,26.252 143.531003,26.150001 142.961,25.946 C142.390997,25.741999 141.893002,25.442002 141.467,25.046 C141.040998,24.649998 140.705001,24.1700028 140.459,23.606 C140.212999,23.0419972 140.09,22.4000036 140.09,21.68 C140.09,20.9839965 140.212999,20.3540028 140.459,19.79 C140.705001,19.2259972 141.037998,18.746002 141.458,18.35 C141.878002,17.953998 142.366997,17.6480011 142.925,17.432 C143.483003,17.2159989 144.079997,17.108 144.716,17.108 C145.352003,17.108 145.966997,17.2279988 146.561,17.468 C147.155003,17.7080012 147.625998,18.0379979 147.974,18.458 L146.498,19.754 Z M154.742,24.902 L154.688,24.902 C154.471999,25.2860019 154.124002,25.6009988 153.644,25.847 C153.163998,26.0930012 152.618003,26.216 152.006,26.216 C151.657998,26.216 151.295002,26.1710005 150.917,26.081 C150.538998,25.9909996 150.191002,25.8410011 149.873,25.631 C149.554998,25.420999 149.291001,25.1450017 149.081,24.803 C148.870999,24.4609983 148.766,24.0380025 148.766,23.534 C148.766,22.8859968 148.948998,22.3700019 149.315,21.986 C149.681002,21.6019981 150.151997,21.308001 150.728,21.104 C151.304003,20.899999 151.942996,20.7650003 152.645,20.699 C153.347004,20.6329997 154.033997,20.6 154.706,20.6 L154.706,20.384 C154.706,19.8439973 154.511002,19.4450013 154.121,19.187 C153.730998,18.9289987 153.266003,18.8 152.726,18.8 C152.269998,18.8 151.832002,18.895999 151.412,19.088 C150.991998,19.280001 150.644001,19.5139986 150.368,19.79 L149.252,18.476 C149.744002,18.0199977 150.310997,17.6780011 150.953,17.45 C151.595003,17.2219989 152.245997,17.108 152.906,17.108 C153.674004,17.108 154.306998,17.2159989 154.805,17.432 C155.303002,17.6480011 155.695999,17.9299983 155.984,18.278 C156.272001,18.6260017 156.472999,19.0159978 156.587,19.448 C156.701001,19.8800022 156.758,20.3119978 156.758,20.744 L156.758,26 L154.742,26 L154.742,24.902 Z M154.706,22.058 L154.22,22.058 C153.871998,22.058 153.506002,22.0729999 153.122,22.103 C152.737998,22.1330002 152.384002,22.1989995 152.06,22.301 C151.735998,22.4030005 151.466001,22.5469991 151.25,22.733 C151.033999,22.9190009 150.926,23.1739984 150.926,23.498 C150.926,23.702001 150.971,23.8729993 151.061,24.011 C151.151,24.1490007 151.267999,24.2599996 151.412,24.344 C151.556001,24.4280004 151.717999,24.4879998 151.898,24.524 C152.078001,24.5600002 152.257999,24.578 152.438,24.578 C153.182004,24.578 153.745998,24.380002 154.13,23.984 C154.514002,23.587998 154.706,23.0480034 154.706,22.364 L154.706,22.058 Z M159.314,12.392 L161.474,12.392 L161.474,26 L159.314,26 L159.314,12.392 Z M169.466,24.902 L169.412,24.902 C169.195999,25.2860019 168.848002,25.6009988 168.368,25.847 C167.887998,26.0930012 167.342003,26.216 166.73,26.216 C166.381998,26.216 166.019002,26.1710005 165.641,26.081 C165.262998,25.9909996 164.915002,25.8410011 164.597,25.631 C164.278998,25.420999 164.015001,25.1450017 163.805,24.803 C163.594999,24.4609983 163.49,24.0380025 163.49,23.534 C163.49,22.8859968 163.672998,22.3700019 164.039,21.986 C164.405002,21.6019981 164.875997,21.308001 165.452,21.104 C166.028003,20.899999 166.666996,20.7650003 167.369,20.699 C168.071004,20.6329997 168.757997,20.6 169.43,20.6 L169.43,20.384 C169.43,19.8439973 169.235002,19.4450013 168.845,19.187 C168.454998,18.9289987 167.990003,18.8 167.45,18.8 C166.993998,18.8 166.556002,18.895999 166.136,19.088 C165.715998,19.280001 165.368001,19.5139986 165.092,19.79 L163.976,18.476 C164.468002,18.0199977 165.034997,17.6780011 165.677,17.45 C166.319003,17.2219989 166.969997,17.108 167.63,17.108 C168.398004,17.108 169.030998,17.2159989 169.529,17.432 C170.027002,17.6480011 170.419999,17.9299983 170.708,18.278 C170.996001,18.6260017 171.196999,19.0159978 171.311,19.448 C171.425001,19.8800022 171.482,20.3119978 171.482,20.744 L171.482,26 L169.466,26 L169.466,24.902 Z M169.43,22.058 L168.944,22.058 C168.595998,22.058 168.230002,22.0729999 167.846,22.103 C167.461998,22.1330002 167.108002,22.1989995 166.784,22.301 C166.459998,22.4030005 166.190001,22.5469991 165.974,22.733 C165.757999,22.9190009 165.65,23.1739984 165.65,23.498 C165.65,23.702001 165.695,23.8729993 165.785,24.011 C165.875,24.1490007 165.991999,24.2599996 166.136,24.344 C166.280001,24.4280004 166.441999,24.4879998 166.622,24.524 C166.802001,24.5600002 166.981999,24.578 167.162,24.578 C167.906004,24.578 168.469998,24.380002 168.854,23.984 C169.238002,23.587998 169.43,23.0480034 169.43,22.364 L169.43,22.058 Z" id="typelevel.scala" fill="#192532" sketch:type="MSShapeGroup"></path>
                    <g id="Page-1">
                        <g id="Rectangle-568" opacity="0.9">
                            <use fill="url(#linearGradient-1)" fill-rule="evenodd" sketch:type="MSShapeGroup" xlink:href="#path-2"></use>
                            <use fill="none" xlink:href="#path-2"></use>
                        </g>
                        <g id="Group" transform="translate(3.000000, 9.000000)" sketch:type="MSShapeGroup">
                            <path d="M26.4702988,0.428421053 L11.8347131,8.45321053 L5.80245501,5.29157895 L-5.77249575e-05,8.47289474 L-5.77249575e-05,11.9465789 L19.1802139,22 L24.9827267,18.8186842 L24.9827267,15.345 L22.189416,13.8808421 L33.5860543,7.63168421 L33.5860543,4.15857895 L31.2730153,2.94568421 L28.7850696,4.30968421 L28.7839151,1.64073684 L26.4702988,0.428421053 Z" id="Fill-1" fill="#FFCECF"></path>
                            <path d="M26.4702988,0.428421053 L11.8347131,8.45321053 L5.80245501,5.29157895 L-5.77249575e-05,8.47289474 L19.1802139,18.5263158 L24.9827267,15.345 L18.9504686,12.1833684 L33.5860543,4.15857895 L31.2730153,2.94568421 L16.6374295,10.9704737 L14.1483294,9.66552632 L28.7839151,1.64073684 L26.4702988,0.428421053 Z" id="Fill-2" fill="#FFFFFF"></path>
                            <path d="M19.1803294,18.5261421 L19.1803294,21.9998263 L24.9828421,18.8185105 L24.9828421,15.3454053 L19.1803294,18.5261421 Z M14.147983,9.66587368 L16.6370832,10.9708211 L28.7847233,4.31003158 L28.7835688,1.64108421 L14.147983,9.66587368 Z M18.9506995,12.1833684 L22.1896469,13.8808421 L33.5862852,7.63168421 L33.5862852,4.15857895 L18.9506995,12.1833684 Z" id="Fill-3" fill="#FA7476"></path>
                        </g>
                    </g>
                </g>
            </g>
        </g>
    </g>
</svg>