<?xml version="1.0" encoding="utf-8"?>
<!-- Generator: Adobe Illustrator 19.0.0, SVG Export Plug-In . SVG Version: 6.00 Build 0)  -->
<svg version="1.1" id="Layer_1" xmlns:sketch="http://www.bohemiancoding.com/sketch/ns"
	 xmlns="http://www.w3.org/2000/svg" xmlns:xlink="http://www.w3.org/1999/xlink" x="0px" y="0px" viewBox="-99.5 70.5 141 47"
	 style="enable-background:new -99.5 70.5 141 47;" xml:space="preserve">
<style type="text/css">
	.st0{fill:url(#Shape_2_);}
	.st1{fill:#FF6169;}
	.st2{fill:#FFFFFF;}
	.st3{fill:#FFB4B5;}
	.st4{opacity:0.9;}
	.st5{fill:#21303F;}
</style>
<title>Page-1_12_</title>
<desc>Created with Sketch Beta.</desc>
<g id="Page-1" sketch:type="MSPage">
	
		<linearGradient id="Shape_2_" gradientUnits="userSpaceOnUse" x1="-115.5766" y1="2.2425" x2="-114.586" y2="1.7349" gradientTransform="matrix(39.8 0 0 45.8 4501.6001 2.3002)">
		<stop  offset="0" style="stop-color:#FF4C61"/>
		<stop  offset="1" style="stop-color:#F51C2B"/>
	</linearGradient>
	<path id="Shape" class="st0" d="M-78.4,116.3L-98.3,105l-0.2-22.9l19.7-11.6L-59,81.7l0.2,22.9L-78.4,116.3z"/>
	<g id="Shape_1_" transform="translate(9.000000, 8.000000)">
		<path class="st1" d="M-94.2,90.9v5.3l12.5-7v-5.4L-94.2,90.9z"/>
		<path class="st2" d="M-94.2,80.2l-4.7-2.6v16l4.6,2.6v-5.3l4.6,2.7l0.1-5.4l-4.7-2.6L-94.2,80.2"/>
		<g transform="translate(5.000000, 3.000000)">
			<path class="st3" d="M-94.6,85.2v5.4l12.4-7.1v-5.3L-94.6,85.2z"/>
			<path class="st3" d="M-86.8,70.2l-12.5,7v5.4l12.5-7.1V70.2z"/>
		</g>
		<g>
			<path class="st1" d="M-81.7,78.5l-12.5,7.1l4.6,2.6l12.4-7.1L-81.7,78.5z"/>
			<path class="st1" d="M-81.8,73.2l-4.6-2.7l-12.5,7.1l4.6,2.6L-81.8,73.2z"/>
		</g>
	</g>
	<g class="st4">
		<path class="st5" d="M-43.4,78.2v10.3h-2.8V78.2h-2.3v-2.4h7.5v2.4H-43.4z"/>
		<path class="st5" d="M-33.4,83.9v4.6h-2.8v-4.6l-3.2-8.2h3.1l1.5,5.3h0l1.5-5.3h3.1L-33.4,83.9z"/>
		<path class="st5" d="M-19.6,79.8c0,0.7-0.1,1.3-0.3,1.8c-0.2,0.5-0.5,0.9-0.9,1.3s-0.8,0.6-1.2,0.7s-0.9,0.2-1.4,0.2h-1.2v4.6
			h-2.8V75.8h4c0.5,0,0.9,0.1,1.4,0.2c0.5,0.1,0.9,0.4,1.3,0.7c0.4,0.3,0.7,0.7,0.9,1.2C-19.7,78.4-19.6,79-19.6,79.8z M-22.3,79.8
			c0-0.6-0.1-1-0.4-1.2c-0.3-0.3-0.6-0.4-1-0.4h-0.9v3.3h0.9c0.4,0,0.7-0.1,1-0.4C-22.4,80.8-22.3,80.4-22.3,79.8z"/>
		<path class="st5" d="M-16.7,88.5V75.8h6.2v2.5H-14v2.5h3.1v2.4H-14v2.7h3.6v2.6H-16.7z"/>
		<path class="st5" d="M-6.9,88.5V75.8H-4v10.1h3.4v2.7H-6.9z"/>
		<path class="st5" d="M2.5,88.5V75.8h6.2v2.5H5.3v2.5h3.1v2.4H5.3v2.7h3.6v2.6H2.5z"/>
		<path class="st5" d="M18,88.5h-3.7l-3.1-12.7h3.3l1.7,9.3h0l1.7-9.3h3.1L18,88.5z"/>
		<path class="st5" d="M24,88.5V75.8h6.2v2.5h-3.4v2.5h3.1v2.4h-3.1v2.7h3.6v2.6H24z"/>
		<path class="st5" d="M33.9,88.5V75.8h2.9v10.1h3.4v2.7H33.9z"/>
		<path class="st5" d="M-42.1,101.8c-0.2-0.3-0.5-0.4-0.8-0.6c-0.3-0.1-0.6-0.2-0.9-0.2c-0.3,0-0.6,0.1-0.9,0.3
			c-0.3,0.2-0.4,0.5-0.4,1c0,0.4,0.1,0.7,0.4,0.9c0.3,0.2,0.7,0.5,1.2,0.7c0.3,0.1,0.6,0.3,0.9,0.5c0.3,0.2,0.6,0.4,0.9,0.7
			c0.3,0.3,0.5,0.6,0.7,1s0.3,0.9,0.3,1.4c0,0.7-0.1,1.3-0.3,1.8c-0.2,0.5-0.5,1-0.9,1.3c-0.4,0.3-0.8,0.6-1.3,0.8
			c-0.5,0.2-1,0.3-1.5,0.3c-0.8,0-1.5-0.1-2.1-0.4c-0.6-0.3-1.1-0.6-1.5-1l1.5-2.2c0.3,0.3,0.6,0.5,1,0.7c0.4,0.2,0.7,0.3,1.1,0.3
			c0.3,0,0.6-0.1,0.9-0.3c0.2-0.2,0.4-0.5,0.4-1c0-0.4-0.1-0.8-0.4-1s-0.7-0.5-1.3-0.8c-0.3-0.2-0.7-0.4-1-0.6
			c-0.3-0.2-0.6-0.4-0.8-0.7c-0.2-0.3-0.4-0.6-0.5-1c-0.1-0.4-0.2-0.8-0.2-1.4c0-0.7,0.1-1.3,0.4-1.8c0.2-0.5,0.5-0.9,0.9-1.3
			c0.4-0.3,0.8-0.6,1.3-0.7c0.5-0.2,0.9-0.2,1.4-0.2c0.7,0,1.3,0.1,1.9,0.3c0.6,0.2,1,0.5,1.4,0.9L-42.1,101.8z"/>
		<path class="st5" d="M-31.3,111.3c-0.6,0.3-1.3,0.5-2.2,0.5c-0.7,0-1.4-0.2-2-0.5c-0.6-0.3-1.1-0.8-1.6-1.4s-0.8-1.3-1-2.1
			c-0.2-0.8-0.4-1.7-0.4-2.7c0-1,0.1-1.9,0.4-2.7c0.2-0.8,0.6-1.5,1-2.1c0.4-0.6,1-1,1.6-1.4c0.6-0.3,1.3-0.5,2-0.5
			c0.9,0,1.6,0.2,2.1,0.5s1,0.7,1.4,1.1l-1.5,2.1c-0.2-0.3-0.5-0.5-0.7-0.7s-0.6-0.3-1-0.3c-0.4,0-0.7,0.1-1,0.3
			c-0.3,0.2-0.5,0.5-0.7,0.8c-0.2,0.4-0.3,0.8-0.4,1.3c-0.1,0.5-0.1,1-0.1,1.6s0,1.1,0.1,1.5c0.1,0.5,0.2,0.9,0.4,1.3
			c0.2,0.4,0.4,0.6,0.7,0.8s0.6,0.3,1,0.3c0.4,0,0.7-0.1,1-0.3c0.3-0.2,0.5-0.4,0.7-0.7l1.6,2C-30.2,110.6-30.7,111-31.3,111.3z"/>
		<path class="st5" d="M-21.5,111.5l-0.5-2.3h-2.9l-0.5,2.3h-2.9l3.1-12.7h3.6l3.1,12.7H-21.5z M-23.4,101.5L-23.4,101.5l-1.2,5.4
			h2.2L-23.4,101.5z"/>
		<path class="st5" d="M-15.6,111.5V98.8h2.9v10.1h3.4v2.7H-15.6z"/>
		<path class="st5" d="M-0.5,111.5l-0.5-2.3h-2.9l-0.5,2.3h-2.9l3.1-12.7h3.6l3.1,12.7H-0.5z M-2.5,101.5L-2.5,101.5l-1.2,5.4h2.2
			L-2.5,101.5z"/>
	</g>
</g>
</svg>
